<?xml version="1.0" encoding="UTF-8"?>
<svg width="127px" height="128px" viewBox="0 0 127 128" version="1.1" xmlns="http://www.w3.org/2000/svg" xmlns:xlink="http://www.w3.org/1999/xlink">
    <!-- Generator: Sketch 50 (54983) - http://www.bohemiancoding.com/sketch -->
    <title>icons8-equestrian_statue</title>
    <desc>Created with Sketch.</desc>
    <defs></defs>
    <g id="Docassemble" stroke="none" stroke-width="1" fill="none" fill-rule="evenodd">
        <g id="icons8-equestrian_statue" fill="#000000" fill-rule="nonzero">
            <path d="M40.3225498,0.0211236334 C39.7470827,0.111052575 39.2113005,0.390830866 38.8144257,0.820492005 C37.7130976,1.92961626 37.4055215,3.01875503 37.2269266,4.33771284 C37.1773179,4.72740556 37.3856765,5.20702659 37.3856765,5.61670224 C35.7088813,6.02637789 34.3198196,6.58593575 33.4963038,7.53518633 C32.3255245,8.8841211 32.1469296,9.72345789 32.2263045,9.69348094 C32.206462,9.71346642 32.1667746,9.673498 32.1469296,9.69348094 C32.1469296,9.69348094 32.1469296,9.77341777 32.1469296,9.77341777 C29.2299012,12.4513018 26.7593539,13.8901649 24.6856838,15.049249 C22.5822476,16.2183246 20.3895151,17.0376785 19.3675619,19.6056487 C19.3675619,19.6556086 19.3675619,19.7155625 19.3675619,19.7655224 C18.8317822,21.3742506 18.9706871,22.5932887 18.9706871,23.3626801 C18.9706871,23.4426169 18.9706871,23.5225538 18.9706871,23.6024906 C19.1691245,25.7807707 20.52842,27.6393009 22.0663103,28.5585745 C23.6042007,29.4778481 25.1817786,29.807587 26.6700577,30.0773744 C27.7316983,30.287208 29.0513063,29.787604 29.686306,29.1980692 C30.3213056,28.6085344 30.5296642,28.1688818 30.7181804,27.839143 C30.9066965,27.5094042 31.0158377,27.3894989 31.0356802,27.359522 C33.506225,26.7799812 36.7903644,27.8291515 40.4019248,27.9990167 C40.7888783,29.6776902 40.9873157,31.7660395 40.8781745,33.8344058 C40.7987996,35.4631195 40.491221,37.0318793 40.084425,38.3908055 C38.8045045,38.3708226 37.524584,38.3108687 34.766303,38.3108687 C32.8315379,38.3108687 30.8273216,38.3408456 29.1306813,38.3908055 C27.6622446,38.4307739 26.6601365,38.4607509 25.6381833,38.630616 C25.5389659,38.630616 25.5687296,38.7005614 25.4794334,38.7105528 C25.360371,38.7305383 25.201621,38.6805759 25.0825586,38.7105528 L25.0825586,38.7904897 C24.4773252,38.9303804 23.9018555,39.1701909 23.6538094,39.3500475 C23.3065434,39.5898581 23.0882635,39.7897001 22.8600599,39.9895422 C22.4036552,40.3892264 21.9472479,40.6889908 21.9075604,40.7089738 C21.8579517,40.7289593 21.7984192,40.7589337 21.7488105,40.7889106 C19.3477194,42.2377651 16.8970171,43.3968493 15.0019394,44.2261946 C14.04944,44.6458643 13.2358479,45.0155715 12.6206908,45.2653735 C12.0055362,45.5151755 11.8666287,45.5251695 11.2713166,45.8249314 C11.0133492,45.9448366 10.7653006,46.1047103 10.556942,46.3045524 C10.0310835,46.8341333 10.0608498,46.9540385 9.92194233,47.1838576 C9.78303743,47.4136766 9.65405123,47.6834641 9.52506756,47.9032891 C9.43577137,48.0631628 9.35639642,48.183068 9.2869427,48.3029733 C6.23100695,49.7718133 3.41319608,51.7402573 3.41319608,51.7402573 C2.7484302,52.2798322 2.38132167,53.0991835 2.42100915,53.9585058 C2.47061786,54.8178255 2.92702511,55.597211 3.65132094,56.0568465 C3.65132094,56.0568465 5.9035859,57.5856379 8.09631838,58.5348885 C8.14592709,58.5648654 8.20545958,58.5948424 8.25506829,58.6148253 C10.8248331,59.5840588 13.1763155,59.5740674 13.1763155,59.5740674 C13.89069,59.5840588 14.5852222,59.2942884 15.0813144,58.774699 L17.8594378,55.8969728 C17.8792828,55.8969728 18.0082664,55.8370215 18.2563125,55.7370992 C18.6631085,55.567234 19.4370156,54.9976847 20.0819365,54.2982361 L20.1613114,54.3781729 C20.2704526,54.2682591 20.2307652,54.1683394 20.3200614,54.0584256 C20.3498276,54.0284486 20.3696701,54.0084657 20.3994363,53.9784887 L20.4788113,53.9784887 C20.8062323,53.5388361 21.0741234,53.0392322 21.1931858,52.7794362 C21.2626396,52.6195625 21.3122483,52.6195625 21.3519358,52.5396257 C21.5503731,52.4397059 21.808343,52.2598467 22.2250603,52.0600047 C23.2172472,51.6003691 24.6261539,50.920906 25.9556831,49.5819627 C26.0648243,49.4720489 26.1045118,49.4920344 26.193808,49.422089 C26.213653,49.422089 26.2533405,49.422089 26.2731829,49.422089 C26.6899027,49.5020259 27.126465,49.6019482 27.6225572,49.6618995 C28.1186519,49.7218534 28.7238853,49.7718133 29.2894312,49.8217732 C29.1306813,49.9516699 28.8528689,50.2014745 28.7338065,50.3013942 C28.4857604,50.5012363 28.2377143,50.691087 28.0988069,50.7810153 C27.8408395,50.910912 27.0173238,51.3305817 26.114433,51.9800678 C25.1024036,52.7094908 23.4950595,53.7486697 23.4950595,56.1367834 C23.4950595,57.9653391 24.1102167,59.9337831 25.5588083,61.9721725 C26.7295902,63.6208691 29.7656809,68.2771911 32.8613041,72.2040876 C32.9009916,72.2640415 32.9803666,72.30401 33.020054,72.3639613 C33.9030998,73.6129737 35.2227103,74.6021927 37.0681767,74.6021927 C37.078098,74.6221782 37.1574729,74.6221782 37.1475517,74.6021927 C37.1376304,74.6021927 37.1475517,74.6821296 37.1475517,74.6821296 C37.3757553,75.3516012 37.8619263,75.8911736 38.4969259,76.2009295 L43.3387981,78.4391609 C44.1226264,78.8288537 45.0453596,78.7988767 45.7994217,78.3592241 C45.7994217,78.3592241 46.5435625,77.8496261 47.1487959,77.0802347 C47.7540293,76.3108433 48.3890289,75.0818138 48.5775451,73.5630139 C48.9049662,70.9550752 48.1806703,68.9266773 48.1806703,68.9266773 C47.9623905,68.4270734 47.6052032,68.0074037 47.1487959,67.7276247 C47.1487959,67.7276247 46.8412173,67.4578373 46.4344213,67.1680669 C46.0276253,66.8782965 45.5017669,66.4686208 45.5612968,66.5285722 C45.3529382,66.3287301 45.1048921,66.1688564 44.8469222,66.0489512 C43.983719,65.61929 43.9539553,65.8591005 43.576923,65.8890775 C43.3288769,65.1996229 43.0609858,64.2403809 41.830674,63.4110355 C40.5507535,62.5517158 39.9157538,62.5716987 39.1319255,62.2919198 C38.6060671,62.1020692 38.2290348,61.8522672 38.1794261,61.8922356 C38.0702849,61.712379 37.6535676,61.0528988 37.3063016,60.4533726 C39.8859876,59.993737 41.6421578,59.6939726 42.9419233,59.25432 C44.4599687,61.8722527 50.4627015,71.5745844 62.8650369,76.5206768 C62.3292572,78.3492326 62.3689447,79.9379779 62.7856619,81.3968239 C63.0436318,82.3160975 63.4008191,83.4152303 64.1350362,84.4344237 C64.1251149,84.9140447 64.1449574,85.3836743 64.2144111,86.0331605 C64.4029273,87.711834 64.9089432,89.9900339 66.198785,92.5879811 C66.7147222,93.62716 66.9429258,94.866181 66.8337846,95.8653914 C66.7246434,96.8646019 66.2483937,97.4841137 66.2781599,97.4641282 C66.21863,97.5140881 66.1690187,97.5640505 66.11941,97.6240019 C65.1966768,98.4233702 63.132928,100.181981 61.2775378,101.860654 C60.3448834,102.699991 59.5015226,103.529336 58.8169142,104.178823 C58.4696482,104.508561 58.1918358,104.728389 57.9437897,104.978191 C57.8247273,105.098096 57.6659774,105.247978 57.5469149,105.377875 C57.4278525,105.507772 57.3583988,105.507772 57.0706652,106.097307 C56.9416816,106.357103 56.8126979,106.636882 56.6737904,106.976612 C56.634103,107.076534 56.5646492,107.346319 56.5150405,107.456233 C56.5249618,107.43625 56.554728,107.446241 56.5150405,107.53617 C56.4753531,107.58613 56.4257443,107.686052 56.3562906,107.77598 C56.3166032,107.82594 56.3166032,107.815949 56.2769157,107.855917 C56.147932,107.945845 56.1975407,107.935854 56.1975407,107.935854 C54.2528543,108.53538 52.7050427,109.804378 52.0700431,111.053391 C51.7723883,111.632934 51.5640271,112.172506 51.4350435,112.652127 L2.54007158,112.652127 C2.46069662,112.652127 2.38132167,112.652127 2.30194671,112.652127 C0.992259968,112.772033 -0.00984883118,113.881157 7.3038112e-05,115.210106 L7.3038112e-05,125.442021 C7.3038112e-05,126.850907 1.14108864,128 2.54007158,128 L124.460001,128 C125.858984,128 127,126.850907 127,125.442021 L127,115.210106 C127,113.80122 125.858984,112.652127 124.460001,112.652127 L86.9156481,112.652127 C87.0644767,112.602167 87.1041642,112.592176 87.3125228,112.492254 C87.5506477,112.342371 87.7689301,112.152523 87.9475225,111.932696 C88.2054923,111.672902 88.5428346,111.373138 88.9000219,110.893517 C89.2572092,110.413896 89.7731464,109.71445 89.7731464,108.575349 C89.7731464,107.875903 89.7235377,107.48621 89.6937715,106.976612 C89.673929,106.596913 89.7334589,106.177243 89.6937715,106.177243 C89.7533039,105.937433 89.7830676,105.697622 89.7731464,105.457812 C89.7731464,105.487789 90.3188499,103.21958 91.1225206,101.301096 C91.8567402,99.5324945 92.5810361,98.0736459 93.0275195,96.6647598 C93.067207,96.5448546 93.1565032,96.3849809 93.1862694,96.2650756 L93.1068945,96.2650756 C93.2954106,95.5856125 93.3350981,95.0160632 93.2656444,94.7462757 C93.1862694,94.4065454 93.0374408,94.2166948 92.9481446,94.0268442 C92.7695522,93.6471455 92.6108023,93.3273981 92.3925199,92.9876653 C91.9658789,92.3082022 91.4598655,91.5288193 90.8843958,90.7494339 C89.7334589,89.1906655 88.3741635,87.5519604 87.8681475,86.9124657 C87.6201014,86.6027098 87.2728353,85.9432322 86.9156481,85.3137289 C87.8780687,84.9540132 88.9694756,84.5443375 90.3287711,83.794929 C93.3747856,82.1262469 96.8375173,78.8688221 98.6631413,73.483077 L98.7425163,73.483077 C98.8417362,73.3431888 98.9508749,73.3431888 98.9806411,73.3232034 C100.617749,73.0134475 101.242827,73.1533382 101.838139,73.8028244 C102.492984,74.5222559 103.237122,76.2608834 103.822513,78.6789714 C104.923841,83.2153882 105.935871,89.7202464 109.69626,95.0660231 C109.706181,95.0860086 109.686339,95.125977 109.69626,95.1459599 C109.934385,95.4756987 109.993917,95.8653914 110.251885,96.1851388 C110.410635,96.3749894 110.599151,96.5348631 110.807509,96.6647598 C110.996025,97.0844295 111.174618,97.8638124 111.363134,98.1835597 C111.968367,99.2527156 112.682742,99.8422504 112.791883,99.9421701 C112.891103,100.4118 112.940712,100.851452 113.109383,101.301096 C113.208603,101.550898 113.278054,101.800703 113.744383,102.340275 C113.972586,102.610063 114.35954,103.039724 115.252507,103.21958 C116.145476,103.39944 117.266647,102.949793 117.71313,102.500149 C118.844225,101.36105 121.523128,97.6539788 121.523128,89.1506971 C121.523128,78.2193359 119.72727,70.4754542 115.411257,65.8890775 C113.24829,63.6008862 110.33126,62.2719369 107.235636,62.0521093 C104.487279,61.8622587 101.609936,62.5517158 98.5837663,63.8107197 C98.4746251,63.4609954 98.4944702,63.5609177 98.3456415,63.0912882 C97.9686117,61.9022271 97.3336121,60.3234758 96.2818927,58.6947621 C94.2082226,55.4872972 90.3585373,52.0200362 83.5819,49.8217732 C83.5819,49.8217732 83.3536963,49.7418364 83.3437751,49.7418364 C83.095729,49.6319226 78.4919817,47.4636365 73.7394056,43.3468894 C73.957688,43.3468894 74.0469842,43.4667947 74.2950303,43.4268262 C75.0490924,43.3169124 75.7138583,42.8772598 76.1206543,42.2377651 C76.537374,41.5982704 76.6465127,40.8088961 76.4381541,40.0694791 C76.2893254,39.5398982 75.9817494,38.6206245 75.7237795,37.8312476 C76.517529,37.2417128 76.9144038,36.2524964 76.7556539,35.2732688 C76.517529,33.5945953 75.7535457,32.235669 74.6919051,30.9566796 C74.6026089,30.8467658 74.4736252,30.7468461 74.3744053,30.6369323 C74.7514376,30.037406 74.8705,29.307983 74.7018263,28.6185284 C74.5430764,27.9190798 74.1065142,27.329545 73.5012808,26.9598378 C73.1738597,26.7599957 72.3701889,26.3203431 71.6756568,25.9206589 C72.2312815,25.4909977 72.8067512,25.2611813 73.3425309,24.6416695 C74.0569054,23.8223182 74.2057341,22.65324 73.7195632,21.6840065 C73.2234684,20.714773 72.2015153,20.1452237 71.1200321,20.2451434 C71.2887033,20.2251605 70.3659701,19.8554507 69.9294078,19.6855856 C70.6735487,19.3458553 71.2093283,18.6763837 71.3978445,17.8870067 C71.5863606,17.0876384 71.3978445,16.2483016 70.8819073,15.6088069 C69.125737,13.4005524 66.546051,11.9516979 63.8175363,10.7326598 C64.1548812,10.0531967 64.1747236,9.25382833 63.8869901,8.55438228 C63.5992565,7.84494221 63.0237868,7.30536728 62.3094122,7.05556531 C61.2477716,6.69584954 60.3448834,6.72582649 59.3725389,6.65588112 C59.5114463,6.39608768 59.7396474,6.20623705 59.8487886,5.93644959 C60.1861334,5.06713584 60.047226,4.0779194 59.4717589,3.33850238 C58.9062104,2.60907938 57.9933984,2.21938666 57.0706652,2.33929191 C56.9516028,2.34928338 54.4711367,2.21938666 52.308168,1.93960773 C50.1452017,1.6598288 48.2699665,1.30011303 46.7519212,1.30011303 C45.5315306,1.30011303 44.6385636,1.75975112 43.6562979,2.0994814 C43.3189556,1.63984587 43.0411433,1.07029398 42.0687988,0.420807819 C41.5528616,0.0910683659 40.937707,-0.0588132038 40.3225498,0.0211236334 Z M46.7519212,6.57594428 C47.009891,6.57594428 49.4506696,6.84573175 51.6731683,7.13550214 C51.2663723,8.03479284 51.395356,9.07397173 51.9906681,9.85335461 C52.9630126,11.1523295 53.9849632,11.2222723 54.7687915,11.3721545 C55.1160576,11.4420999 55.4533999,11.4920598 55.8006659,11.5320282 C55.820511,11.7418617 55.7312122,11.891744 55.8006659,12.0915861 C56.3166032,13.590403 57.2393364,13.7202997 57.6262899,13.8501965 C59.4419926,14.4197458 60.3944921,15.3989733 61.9919124,16.2483016 C61.287459,17.1975522 60.960038,18.5464869 61.1981628,19.6056487 C61.3767578,20.4749625 61.9720699,21.194394 62.7856619,21.5241328 C62.5673821,21.4342045 63.0833193,21.693998 63.6587864,22.0836907 C64.0854274,22.3734611 64.6807396,22.7531624 65.2462855,23.1228696 C65.1173018,23.1328611 65.0974568,23.0928926 64.9287857,23.1228696 C64.5517559,23.1828235 63.966365,23.1828235 63.2619117,23.7623643 C62.5574583,24.3419076 62.1506623,25.4710148 62.1506623,26.1604694 C62.1308198,27.4494503 63.033708,28.5585745 64.2937861,28.798385 C65.9606601,29.1181324 66.3575349,29.6377218 67.3100343,30.0773744 C66.9429258,31.4163177 67.6771429,32.8152124 68.9769084,33.2748479 C68.3617537,33.9043511 68.0938626,34.8036393 68.272455,35.6629616 C68.4411287,36.5322753 69.0364409,37.2517068 69.8500329,37.5914371 C69.8301904,37.5814457 69.9294078,37.7413193 69.9294078,37.7513108 C69.7508154,37.8312476 69.631753,37.9611444 69.4531581,38.0710581 C69.0265171,37.6014286 68.3022213,37.0318793 67.7069091,36.4723214 C67.6473792,36.4223615 67.6076917,36.3624076 67.5481592,36.3124477 C67.1512844,35.9727174 67.0421432,35.6529701 66.4369098,35.3532057 C65.385193,34.8336162 64.1151937,35.0734267 63.3313654,35.9427405 C62.5376158,36.8120542 62.4185534,38.1010351 63.0237868,39.110237 C69.6813617,50.0116238 81.5181512,54.6979203 81.5181512,54.6979203 C81.5975261,54.7278972 81.6769011,54.7578742 81.756276,54.7778571 C87.7590063,56.6763583 90.4577548,59.3242654 91.9162702,61.5724883 C92.640566,62.691604 93.0572858,63.7807428 93.3450194,64.6900249 C93.6327529,65.5993071 93.553378,66.0789281 94.1387689,67.2480037 C94.40666,67.7875787 94.7340811,68.3471365 95.2500183,68.8467405 C95.4087682,69.0066141 95.7361892,69.0265996 95.9643928,69.1664878 C95.3988469,69.5461891 94.8233772,69.7360371 94.2975188,70.525414 C94.1586139,70.7452416 94.0494727,70.9950436 93.980019,71.2448456 C92.660411,75.7912538 90.2493961,77.7696893 87.8681475,79.0786556 C86.6775232,79.7281418 85.4670564,80.2277483 84.4550245,80.5974555 C83.9490085,80.7873062 83.5322913,80.9172029 83.0262753,81.1570134 C82.5698706,81.376841 81.835651,81.6965883 81.2800263,82.835687 L81.2006513,82.835687 C81.1808089,82.8756554 81.2204963,82.8756554 81.2006513,82.9156238 C81.1907301,82.9456008 81.2105726,82.9655837 81.2006513,82.9955607 C80.8533853,83.8149145 80.9129178,84.3245099 80.9625265,84.6742342 C81.022059,85.0539355 81.1014339,85.3536974 81.2006513,85.6334763 C81.3891675,86.1830427 81.6372136,86.6926407 81.9150259,87.232213 C82.4706506,88.3113603 83.1254953,89.3905076 83.8200248,90.2698128 C84.3260408,90.9093075 85.5265864,92.4980528 86.5981482,93.9469074 C87.0843192,94.5963935 87.4911177,95.1659454 87.7887726,95.6255809 C87.481194,96.3849809 86.9652568,97.6539788 86.2806484,99.3026754 C85.5365076,101.081271 84.8915867,102.729968 84.6931493,104.658444 L84.6137744,104.658444 C84.5542444,104.838303 84.6534619,104.898254 84.6137744,105.058128 C84.6038531,105.20801 84.4550245,105.297938 84.4550245,105.457812 L84.5343994,105.457812 C84.4451032,106.117292 84.3458833,106.806747 84.3756495,107.296359 C84.3855707,107.516187 84.3657283,107.496201 84.3756495,107.696043 C84.1276034,107.706035 83.8200248,107.696043 83.8200248,107.696043 C83.0361965,107.706035 82.2920582,108.075745 81.7959635,108.695254 C81.3097925,109.304772 81.1212764,110.114134 81.2800263,110.893517 C81.2800263,110.893517 81.3990887,111.463066 81.5181512,112.092569 C81.5677599,112.352365 81.5776836,112.452285 81.5975261,112.652127 L79.1369025,112.652127 C80.1886219,111.552997 80.3870593,110.613738 80.8037766,109.774401 C81.2701051,108.835145 81.1808089,107.506193 80.9625265,106.736801 C80.9922927,106.696833 80.9922927,106.72681 81.2006513,106.417054 C81.5280724,105.927441 82.0340884,105.218001 82.6294005,104.418633 C83.8200248,102.819896 85.3380702,100.721556 86.1218985,98.023686 C86.1218985,97.9937091 86.1218985,97.9737262 86.1218985,97.9437492 C86.3699446,96.9345473 86.0226811,96.1951303 85.8043987,95.7854546 C85.5861188,95.375779 85.3678364,95.2059138 85.1693991,94.9860862 C84.7725243,94.5564251 84.3756495,94.1567409 83.8993998,93.7870337 C82.9469003,93.0476192 81.7265098,92.1982884 80.3275268,91.2290549 C79.4742474,90.6395201 78.4820604,89.9800424 77.5494034,89.3105708 C77.5196372,89.2805938 77.4997947,89.2606109 77.4700285,89.230634 C77.0830749,88.4512511 76.3389367,87.9116761 75.4856546,87.7917709 C74.037063,86.7026321 72.6380775,85.5235625 71.358157,84.3544869 C70.2171414,83.285331 69.5424543,82.6458364 69.0562833,82.1162554 C68.8975334,81.8064996 68.6792536,81.5367147 68.4212837,81.3168871 C68.0640964,80.8272746 68.0244089,80.8072891 67.7862841,79.9579608 C67.8458165,80.1677944 67.7168303,78.409184 68.5800336,76.5206768 C69.4432369,74.6321697 71.1101109,72.30401 74.5331552,70.1257299 C75.4261247,69.6760858 75.9916706,68.7568122 75.9817494,67.7476102 C75.9817494,66.7384057 75.4162009,65.8191321 74.5133127,65.3794795 C73.6203432,64.9298354 72.5487813,65.0397492 71.7550318,65.649267 C68.798316,67.5377741 66.6948797,69.7060627 65.2462855,71.8044034 C52.7943389,66.9582333 46.2756714,54.857794 46.2756714,54.857794 C45.6406718,53.6987098 44.2516101,53.1791204 43.0212983,53.6587414 C43.0212983,53.6587414 37.9413012,55.4872972 33.4963038,55.7370992 C33.4566163,55.7370992 33.4566163,55.7370992 33.4169288,55.7370992 C32.9406791,55.7470906 32.3255245,55.9669182 31.8294297,56.3765939 C31.3134925,56.806255 31.0654464,57.3458274 30.9563052,57.7355201 C30.7380254,58.5049115 30.8273216,58.8346529 30.8769303,59.0944463 C30.9662265,59.6140358 31.0753677,59.8438548 31.1944301,60.1336252 C31.4424762,60.72316 31.7302123,61.3426692 32.0675546,61.9721725 C31.4027887,61.0129304 30.2518519,59.514116 29.8450559,58.9345727 C28.9620101,57.6955517 28.8330265,57.3957898 28.8131815,56.6963412 C28.8330265,56.6763583 28.872714,56.4765162 29.1306813,56.296657 C29.6366973,55.9369413 30.2320094,55.6271854 30.6388054,55.4173518 C31.5516174,54.9577163 31.5813836,54.8478025 32.1469296,54.3781729 C32.7124755,53.9085434 33.4665375,53.2590572 34.4488032,52.379752 C35.0044279,51.880148 36.2148972,50.7110699 36.9094268,50.0615837 C36.9391931,50.0316068 36.9590355,50.0116238 36.9888018,49.9816469 C37.0284892,49.9516699 37.1078642,49.931687 37.1475517,49.90171 C37.5444264,49.671891 37.8718475,49.3421522 38.1000511,48.942468 C39.6875502,47.4636365 40.8880958,46.3844892 43.1800482,44.2261946 C43.3685644,44.0663209 43.5273143,43.8764703 43.6562979,43.6666367 C43.7356729,43.53674 43.8249691,43.4068433 43.8944228,43.2669526 C44.8072348,42.6574348 45.243797,41.5483106 45.0056722,40.4691633 C45.670438,38.4507594 46.0871553,36.2624878 46.1962965,34.0742163 C46.3252801,31.5162375 46.1367665,29.0182126 45.5612968,26.7200273 C46.1169215,26.3403286 46.7023124,25.9506358 47.1487959,25.361101 C48.7065288,23.3027287 49.3018409,20.464971 49.3712946,16.4881121 C49.4804358,15.4889016 49.0240286,14.4996826 48.1806703,13.9601103 C47.3373121,13.4105439 46.255829,13.4005524 45.4025469,13.9201418 C44.5393437,14.4397313 44.0531727,15.3989733 44.1325477,16.4081753 C44.0730177,19.8454593 43.4479393,21.5241328 43.0212983,22.0836907 C42.5946573,22.6432486 42.2970025,22.7331769 41.1162994,22.7231854 C38.7548958,22.7032025 34.1610697,20.9046236 29.2100562,22.4034381 C29.18029,22.4034381 29.1604475,22.4034381 29.1306813,22.4034381 C27.5927909,22.9230275 27.1562287,23.9322294 26.7494327,24.6416695 C25.9556831,24.4518189 25.1123249,24.2120084 24.7650588,24.0021748 C24.2689666,23.7024129 24.2689666,23.7623643 24.2094341,23.1228696 C24.2392004,22.3934466 24.3781053,21.474173 24.368184,21.444196 C24.4177927,21.4042276 25.1420911,20.8446697 27.2256824,19.6855856 C29.3787274,18.486533 32.4048994,16.6679713 35.7981775,13.5304491 C35.8279437,13.5004722 35.8477862,13.4804892 35.8775524,13.4505123 C37.2566929,12.0616091 37.3559103,11.1723124 37.4650515,11.0524072 C37.5741927,10.9325019 37.8123176,10.5228263 40.2431749,10.4129125 C40.9674707,10.3929295 41.6520816,10.0731822 42.1283313,9.5236158 C42.6045811,8.98404087 42.8427059,8.26460933 42.7831734,7.53518633 C42.8823934,7.5451778 42.8228609,7.61512317 42.9419233,7.61512317 C43.3586431,7.6051317 43.7654391,7.49521791 44.1325477,7.29537582 C44.837001,6.94565152 46.1863752,6.57594428 46.7519212,6.57594428 Z M34.766303,43.5866999 C35.4608352,43.5866999 35.4509114,43.5866999 36.1156773,43.5866999 C35.5898188,44.0763124 35.1532566,44.5059735 34.6869281,44.9456261 C34.0023197,44.9056577 33.0398991,44.8457064 31.35318,44.7058156 C30.2518519,44.6158873 29.100915,44.4959821 28.2575568,44.3860683 C27.8309158,44.3261169 27.513416,44.266163 27.3050573,44.2261946 C27.2852149,44.2162031 27.3249023,44.3161229 27.3050573,44.3061314 C26.6601365,43.9863841 26.2731829,44.3261169 25.7175582,44.3860683 C25.8663869,44.2561716 26.1541205,44.0863064 26.2731829,43.9863841 C26.3227916,43.9464157 26.3128704,43.9464157 26.3525579,43.9064473 C26.4616991,43.8964558 27.7614646,43.7066052 29.2894312,43.6666367 C30.8967753,43.6166769 32.8613041,43.5866999 34.766303,43.5866999 Z M17.462563,49.0224048 C17.3732668,49.0623733 17.2442831,49.1223272 17.1450632,49.2622154 C16.7382672,49.8717331 16.4505336,50.4812534 16.3513136,50.7010784 C16.3215474,50.7510383 16.2917837,50.8109922 16.2719387,50.8609521 C16.0040476,50.9708659 15.2400643,51.1007626 14.3669398,51.9800678 L12.303191,54.0584256 C11.81702,54.0184572 11.3209253,54.0184572 10.3981921,53.7386782 C11.1820204,53.2790427 11.2415503,53.0492237 12.1444411,52.6994994 C12.4718621,52.5696026 12.7695195,52.379752 13.0175656,52.1399415 C13.543424,51.6103606 13.5930352,51.4904553 13.7319401,51.2606363 C13.8708476,51.0308172 13.9998312,50.7610323 14.1288149,50.5412047 C14.1883474,50.441285 14.2379561,50.3913225 14.2875648,50.3013942 C14.476081,50.2214574 14.3867848,50.2314489 14.6050646,50.1415206 C15.2499855,49.8817271 16.12311,49.5519857 17.1450632,49.1023417 C17.2244381,49.0623733 17.3534218,49.0723647 17.462563,49.0224048 Z M34.5281782,65.4094565 C35.5203651,66.388684 36.4728646,66.9482419 37.3063016,67.2480037 C37.8619263,67.4478458 38.4076297,67.6776649 38.7350508,67.8075616 C38.8541132,68.1373004 38.8541132,68.4370648 39.2906754,69.3263615 C39.4196591,69.596149 39.5684878,69.8459509 39.7669252,70.045793 C39.0922381,69.7060627 38.4473172,69.3763214 37.3856765,69.3263615 C37.3955978,69.336353 37.2963803,69.346347 37.2269266,69.2464247 C37.1773179,69.1664878 37.1277092,69.086551 37.0681767,69.0066141 C36.0263811,67.6876563 35.5104439,66.7783742 34.5281782,65.4094565 Z M106.918137,67.3279406 C108.823135,67.4578373 110.27173,68.0673576 111.601259,69.4862352 C114.270241,72.3239929 116.205006,78.8588306 116.205006,89.1506971 C116.205006,90.8993161 115.85774,91.5288193 115.649382,92.7478548 C115.421178,92.6579265 115.183053,92.6079666 114.935007,92.5879811 C114.815945,92.1783055 114.726648,92.138337 114.617507,91.6287391 C114.409149,90.7294509 113.744383,90.0000254 112.871258,89.710255 C111.055555,86.0031835 110.003839,81.6566199 108.981885,77.4799189 C108.336964,74.8120263 107.572981,72.2240731 105.727512,70.2056667 C104.91392,69.3063786 103.782826,68.7668036 102.552514,68.3671194 C104.060638,67.9474523 105.777121,67.2480037 106.918137,67.3279406 Z M40.7987996,70.7652246 C41.0865331,70.8951213 41.3941117,70.9750581 41.5925491,71.0050351 C42.1481738,71.1049574 42.4458311,71.0250206 42.7037985,71.0050351 C42.8823934,71.1349318 43.090752,71.284814 43.2594232,71.4047193 C43.3090319,71.5745844 43.3685644,71.8943317 43.3387981,72.6037718 L41.6719241,71.8044034 C41.6520816,71.7744265 41.6123941,71.7544436 41.5925491,71.7244666 C41.3841905,71.3847363 41.1361444,71.1249403 40.7987996,70.7652246 Z M71.358157,91.2290549 C71.7550318,91.5388108 72.1519065,91.8885351 72.5487813,92.1882969 C72.5686263,93.0476192 72.6083138,93.886956 72.6281563,95.6255809 C72.6480013,96.8646019 72.6380775,98.1236084 72.6281563,99.0628649 C72.6281563,99.4325722 72.6380775,99.7023596 72.6281563,99.9421701 C72.5289388,100.072067 72.5686263,99.9421701 72.3106565,100.181981 C71.8344067,100.631625 71.1200321,101.211168 70.3262826,101.780717 C67.9847214,103.459391 66.5758173,105.797545 66.4369098,105.937433 C66.3178474,106.057338 66.2087062,106.197229 66.11941,106.337117 C65.4149567,107.396281 65.3554267,108.285578 65.1669106,109.214843 C64.9486307,109.134906 64.7601146,109.034987 64.452536,108.975033 C64.2243323,108.925073 63.9167563,108.875113 63.5000365,108.895096 C63.2420692,108.905087 62.8154282,109.264803 62.3887872,109.454654 L62.3094122,109.29478 C62.1308198,109.384708 62.2101948,109.514608 62.0712873,109.614527 C61.9224587,109.71445 61.8331625,109.624519 61.6744126,109.774401 L61.8331625,109.934275 C61.4660539,110.323968 60.979883,110.693675 60.880663,110.973454 C60.7318344,111.413106 60.6623832,111.732854 60.6425382,112.012633 C60.6326169,112.102561 60.6425382,112.162515 60.6425382,112.252443 C60.2655084,112.272429 60.5036333,112.33238 59.9281636,112.33238 C59.7297262,112.33238 59.5312888,112.272429 59.2931639,112.252443 C59.5312888,112.092569 59.64043,111.972664 59.7694137,111.852759 C60.0273835,111.602957 60.2059759,111.373138 60.4044133,111.133327 C60.6028507,110.893517 60.7814456,110.613738 60.960038,110.333959 C61.0493342,110.194071 61.1783204,110.064172 61.2775378,109.854338 C61.3370703,109.724441 61.4462089,109.354734 61.5156627,109.05497 C61.5355077,109.00501 61.5553501,108.895096 61.5950376,108.815159 C61.5851164,108.825151 61.5255839,108.805168 61.5156627,108.815159 C61.5255839,108.685262 61.5950376,108.755208 61.5950376,108.575349 C61.5950376,108.945056 61.6148826,108.765199 61.5950376,108.815159 C61.6148826,108.785182 61.6545701,108.775191 61.6744126,108.735222 C61.8331625,108.575349 62.0712873,108.315555 62.3887872,108.015791 C63.0237868,107.416264 63.9365988,106.596913 64.8494107,105.777559 C66.605581,104.188814 68.4708924,102.570094 69.3737831,101.780717 C69.3936281,101.770726 69.4333156,101.710772 69.4531581,101.700781 C69.4829243,101.680798 69.5027668,101.640829 69.532533,101.620844 C71.1894859,100.321871 71.864173,98.4433557 72.0725316,96.5048861 C72.2511265,94.8062296 72.0229229,92.9776738 71.358157,91.2290549 Z M77.9462782,96.0252651 C78.8987777,96.6947368 79.8016684,97.32424 80.4069018,97.7838755 C79.8611983,98.9929196 79.2460437,100.201966 78.4225279,101.301096 C77.8768245,102.030519 77.3311236,102.729968 76.8350289,103.459391 C76.3389367,104.188814 75.8229995,104.91824 75.6444045,106.177243 C75.6146383,106.277166 75.5848746,106.387077 75.5650296,106.496991 C75.5650296,107.306351 75.7237795,107.446241 75.8825294,107.77598 C75.5650296,108.405483 75.2475298,109.05497 75.3269047,108.975033 C75.3864372,108.915081 74.9994837,109.334749 74.5331552,109.694464 C74.0668267,110.05418 73.5409682,110.094148 72.8662811,111.453075 C72.6678437,111.852759 72.5289388,112.142529 72.3106565,112.652127 L69.4531581,112.652127 C69.5622993,112.272429 69.6515955,111.902719 69.691283,111.533012 L69.9294078,111.612948 C70.1774539,110.373927 70.4751113,109.424677 70.4850325,109.374717 C70.4850325,109.374717 70.4850325,109.29478 70.4850325,109.29478 C71.5962819,108.075745 72.3305015,106.886684 73.4219058,106.097307 C74.4041715,105.387867 75.2078423,104.73838 75.8825294,104.098886 C76.5572165,103.459391 77.0334662,103.149635 77.5494034,102.100465 C77.9561994,101.281113 77.8470608,101.181191 77.8669033,100.981349 C77.8867483,100.781507 77.856982,100.611642 77.8669033,100.421791 C77.8867483,100.042092 77.936357,99.6523997 77.9462782,99.1428018 C77.9561994,98.2535051 77.9561994,97.1243979 77.9462782,96.0252651 Z M56.8325404,107.696043 C56.6837117,107.72602 56.5844943,107.815949 56.4356656,107.855917 C56.4455868,107.835934 56.4257443,107.795966 56.4356656,107.77598 C56.4753531,107.736012 56.7432442,107.746003 56.8325404,107.696043 Z M5.08007012,117.768085 L74.6919051,117.768085 C74.8407338,117.798062 74.9201087,117.828039 75.0887799,117.848022 C76.1504205,117.997904 77.7478408,118.087832 80.010027,118.087832 C81.3395588,118.087832 82.4111207,118.007895 83.3437751,117.768085 L121.920003,117.768085 L121.920003,122.884042 L5.08007012,122.884042 L5.08007012,117.768085 Z" id="Shape"></path>
        </g>
    </g>
</svg>